# xmcd
#
# Track frame offsets: 
#        150
#        14759
#        43834
#        71036
#        98059
#        129202
#        146164
#        176459
#        194457
#        210709
#        228384
#        250202
#        284742
#        311719
#
# Disc length: 4380 seconds
#
# Revision: 0
# Processed by: cddbd v1.5.2PL0 Copyright (c) Steve Scherf et al.
# Submitted via: ExactAudioCopyFreeDBPlugin 1.0
#
DISCID=d9111a0e
DTITLE=Windy City Rev Ups - Rokin' At the Lake House
DYEAR=1900
DGENRE=Blues
TTITLE0=Fortunate Son
TTITLE1=Voodoo Child
TTITLE2=Soul Sacrifice
TTITLE3=Whipping Post
TTITLE4=Stormy Mondy
TTITLE5=Messin' With the Kid
TTITLE6=Freeway Jam
TTITLE7=Woke Up This Morning
TTITLE8=Comin' Home Baby
TTITLE9=Teh Little Red Rooster
TTITLE10=Flor D' Luna (Moonflower)
TTITLE11=Black MAgic Woman
TTITLE12=Europa
TTITLE13=Red House
EXTD=
EXTT0=
EXTT1=
EXTT2=
EXTT3=
EXTT4=
EXTT5=
EXTT6=
EXTT7=
EXTT8=
EXTT9=
EXTT10=
EXTT11=
EXTT12=
EXTT13=
PLAYORDER=
